<svg fill="none" height="28" viewBox="0 0 41 28" width="41" xmlns="http://www.w3.org/2000/svg"><rect fill="#fff" height="27.5" rx="3.25" stroke="#d6d6d6" stroke-width=".5" width="40.3333" x=".25" y=".25"/><path clip-rule="evenodd" d="m9.73595 10.4211c.54835.0463 1.09675-.2775 1.43955-.68807.337-.42211.5598-.98878.5026-1.56701-.4855.02313-1.0853.32381-1.428.74592-.31422.36429-.58269.95409-.51415 1.50916zm6.52345 7.4477v-9.01463h3.3417c1.7251 0 2.9304 1.20273 2.9304 2.96053 0 1.7579-1.2281 2.9722-2.9761 2.9722h-1.9136v3.0819zm-4.587-7.338c-.4831-.0281-.924.1471-1.28.2886-.2292.0911-.4232.1682-.57082.1682-.16566 0-.3677-.0812-.59456-.1724-.29724-.1196-.63708-.2562-.99346-.2497-.81686.0116-1.5766.48-1.99359 1.2259-.85685 1.4918-.22278 3.7007.6055 4.915.40557.6014.89112 1.2605 1.5309 1.2374.28146-.0107.48393-.0977.69347-.1877.24123-.1036.49183-.2113.88312-.2113.37774 0 .61734.1049.84744.2055.2187.0957.4288.1876.7406.1819.6626-.0115 1.0796-.6013 1.4852-1.2027.4377-.6454.63-1.2753.6592-1.3709l.0034-.0111c-.0007-.0007-.0061-.0032-.0156-.0076-.1463-.0678-1.2646-.586-1.2754-1.9757-.0107-1.1664.887-1.7574 1.0284-1.8505.0086-.0056.0144-.0094.017-.0114-.5712-.8558-1.4624-.9483-1.7708-.9715zm13.384 7.4073c.8683 0 1.6737-.4452 2.0393-1.1506h.0286v1.0813h1.2795v-4.4871c0-1.3011-1.0282-2.1395-2.6105-2.1395-1.4681 0-2.5534.85-2.5934 2.018h1.2453c.1028-.5551.6112-.9194 1.3081-.9194.8454 0 1.3196.399 1.3196 1.1334v.4973l-1.7252.104c-1.6051.0983-2.4734.7633-2.4734 1.9198 0 1.168.8968 1.9428 2.1821 1.9428zm.3712-1.0694c-.7369 0-1.2053-.3585-1.2053-.9079 0-.5666.4513-.8962 1.3138-.9483l1.5366-.0983v.5089c0 .8442-.7083 1.4456-1.6451 1.4456zm7.2204 1.3526c-.5541 1.5786-1.1882 2.099-2.5363 2.099-.1028 0-.4455-.0115-.5255-.0347v-1.0813c.0857.0116.297.0232.4056.0232.6112 0 .9539-.2602 1.1653-.9368l.1257-.399-2.3421-6.5629h1.4452l1.628 5.3255h.0286l1.628-5.3255h1.4052zm-15.0064-8.1874h1.5938c1.1996 0 1.885.6477 1.885 1.7868s-.6854 1.7925-1.8907 1.7925h-1.5881z" fill="#000" fill-rule="evenodd"/></svg>