<svg width="32" height="32" viewBox="0 0 32 32" fill="none" xmlns="http://www.w3.org/2000/svg">
<rect width="32" height="32" fill="#FF831A"/>
<path d="M15.8746 26.1153C13.4883 26.1153 10.5499 25.6368 8.41836 24.5011C8.30362 24.44 8.2339 24.3196 8.2339 24.1896V20.6949C8.2339 20.4097 8.5513 20.2352 8.79951 20.3758C11.122 21.6907 13.9363 22.256 15.9526 22.256C18.0966 22.256 19.461 21.6322 19.461 20.2678C19.461 19.2932 18.8763 18.7865 17.239 18.3966C15.6017 18.0068 12.6 17.578 10.7678 16.7204C8.89661 15.8627 8 14.3814 8 12.1593C8 8.10509 11.3136 6 15.9526 6C18.2498 6 20.9472 6.50934 22.8499 7.42257C22.9719 7.48115 23.0475 7.60555 23.0475 7.74093V11.0522C23.0475 11.3242 22.757 11.4991 22.5119 11.3815C20.3012 10.3202 17.8326 9.82034 16.0305 9.82034C14.0424 9.82034 12.717 10.4051 12.717 11.7305C12.717 12.7441 13.4576 13.2119 15.1339 13.6017C16.8102 13.9526 19.617 14.3424 21.4102 15.161C23.2424 16.0187 24.178 17.461 24.178 19.839C24.178 24.1271 20.4356 26.1153 15.8746 26.1153Z" fill="#F3F3F3"/>
</svg>
