<svg fill="none" height="38" viewBox="0 0 149 38" width="149" xmlns="http://www.w3.org/2000/svg"><g fill="#f3f3f3"><path d="m144.053 29.7831c-.199 0-.36-.1613-.36-.3602v-29.062717c0-.198923.161-.360183.36-.360183h3.997c.199 0 .36.161259.36.360182v29.062718c0 .1989-.161.3602-.36.3602z"/><path d="m110.841 29.8091c-.146 0-.277-.0879-.333-.2227l-7.655-19.3949c-.098-.23713.076-.49769.333-.49769h4.245c.148 0 .281.09039.335.22794l2.834 8.03645c.814 2.0924 1.55 4.1077 2.287 6.1225.008.0222.029.0369.052.0369s.044-.0145.053-.0363c.775-2.0545 1.55-4.1472 2.403-6.24l2.833-7.92138c.055-.13658.187-.22611.334-.22611h3.975c.256 0 .431.26006.333.49709l-7.617 19.3949c-.056.1351-.187.2233-.333.2233z"/><path d="m92.3277 29.8091c-5.9645 0-10.4085-4.4051-10.4085-10.0576 0-5.6916 4.444-10.05769 10.4085-10.05769 5.9644 0 10.4083 4.36609 10.4083 10.05769 0 5.6525-4.4439 10.0576-10.4083 10.0576zm0-4.1712c3.2355 0 5.6915-2.5729 5.6915-5.8864 0-3.3136-2.456-5.9255-5.6915-5.9255-3.2746 0-5.6916 2.6119-5.6916 5.9255 0 3.3135 2.417 5.8864 5.6916 5.8864z"/><path clip-rule="evenodd" d="m61.3169 38c-.1989 0-.3601-.1613-.3601-.3602v-27.5424c0-.1989.1612-.36016.3601-.36016h9.6195c4.9899 0 9.1221 3.89836 9.1221 9.82376 0 6.0034-4.2882 10.2915-9.9797 10.2915-1.6601 0-3.0909-.3823-4.2922-.9956-.022-.0112-.048-.0114-.0701-.0003-.0262.0131-.0428.0399-.0428.0692v8.714c0 .1989-.1612.3602-.3602.3602zm8.2551-12.1237c-1.3988 0-2.7282-.4172-3.7254-.9889-.1085-.0622-.1729-.1789-.1729-.3039v-10.4318c0-.199.1614-.3602.3603-.3602h3.7719c3.4305 0 5.4966 2.6508 5.4966 6.0034 0 3.4695-2.1051 6.0814-5.7305 6.0814z" fill-rule="evenodd"/><path d="m19.5869 29.7831c-.1989 0-.3602-.1613-.3602-.3602v-29.062717c0-.198923.1613-.360183.3602-.360183h3.9966c.1989 0 .3602.161259.3602.360182v11.994318c0 .0258.0146.0494.0377.061.0244.0122.0537.0087.0746-.0089 1.5569-1.3112 3.7266-2.31 6.2419-2.31 2.1051 0 3.7814.6627 5.0289 1.9882 1.2084 1.3254 1.6762 3.0407 1.6762 5.6135v11.7246c0 .1989-.1612.3602-.3601.3602h-3.9966c-.199 0-.3602-.1613-.3602-.3602v-11.1398c0-1.3644-.1949-2.378-.8576-3.0407-.6628-.6627-1.5984-.9746-2.6509-.9746-1.7412 0-3.5192.8454-4.7273 2.0008-.069.0661-.1066.158-.1066.2535v12.9008c0 .1989-.1613.3602-.3602.3602z"/><path d="m7.87459 29.8525c-2.38632 0-5.3247-.4784-7.456233-1.6141-.114742-.0612-.184458-.1816-.184458-.3116v-3.4946c0-.2853.317397-.4597.565606-.3192 2.322485 1.3149 5.136805 1.8802 7.153055 1.8802 2.14404 0 3.50844-.6237 3.50844-1.9881 0-.9746-.5847-1.4814-2.222-1.8712-1.63729-.3899-4.63899-.8187-6.4712-1.6763-1.871188-.8576-2.7678-2.339-2.7678-4.561 0-4.0543 3.31356-6.15936 7.95256-6.15936 2.29724 0 4.99464.50936 6.89734 1.42256.122.0586.1976.183.1976.3184v3.3113c0 .2719-.2905.4469-.5356.3292-2.2107-1.0613-4.67929-1.5611-6.48138-1.5611-1.98814 0-3.31356.5847-3.31356 1.9102 0 1.0135.74068 1.4813 2.41695 1.8712 1.67628.3508 4.48309.7406 6.27629 1.5593 1.8322.8576 2.7678 2.3 2.7678 4.678 0 4.2881-3.7424 6.2762-8.30341 6.2762z"/><g clip-rule="evenodd" fill-rule="evenodd"><path d="m55.8714 29.8135h-9.3085c-3.8203 0-6.7051-2.0661-6.7051-5.7695 0-4.0932 3.1577-5.9644 7.9526-5.9644 1.1695 0 2.5339.117 3.7814.3119v-1.1695c0-2.378-1.5983-3.4305-4.639-3.4305-1.959 0-3.6838.4975-4.9464 1.1121-.2491.1213-.5503-.0546-.5503-.3317v-3.1464c0-.1281.0674-.247.1799-.3083 1.4128-.7713 3.5998-1.37996 6.2524-1.37996 5.2237 0 8.3423 2.29996 8.3423 6.90006v2.5357l2.0029.3374c.1734.0292.3004.1793.3004.3552v2.3819c0 .2235-.2015.3931-.4218.3548l-1.8815-.3264v1.8851 5.2924c0 .1989-.1604.3601-.3593.3601zm-4.6396-3.6254h-3.5384c-1.7932 0-3.1966-.7407-3.1966-2.4559 0-1.9102 1.8322-2.5339 4.0153-2.5339.9356 0 2.183.1169 3.0797.2729v4.3567c0 .199-.1611.3602-.36.3602z"/><path d="m139.312 29.8136h-9.309c-3.82 0-6.705-2.0662-6.705-5.7696 0-4.0932 3.158-5.9644 7.953-5.9644 1.169 0 2.533.117 3.781.3119v-1.1695c0-2.378-1.598-3.4305-4.639-3.4305-1.959 0-3.684.4975-4.946 1.1121-.25.1213-.551-.0546-.551-.3317v-3.1464c0-.1281.068-.247.18-.3083 1.413-.7713 3.6-1.37996 6.253-1.37996 5.223 0 8.342 2.29996 8.342 6.90006v2.5357l2.003.3374c.173.0292.3.1793.3.3552v2.3819c0 .2235-.201.3931-.422.3548l-1.881-.3264v1.8851 5.2924c0 .1989-.161.3602-.359.3602zm-4.64-3.6255h-3.538c-1.794 0-3.197-.7407-3.197-2.4559 0-1.9102 1.832-2.5339 4.015-2.5339.936 0 2.183.1169 3.08.2729v4.3567c0 .199-.161.3602-.36.3602z"/></g></g></svg>