<svg fill="none" height="28" viewBox="0 0 41 28" width="41" xmlns="http://www.w3.org/2000/svg"><rect fill="#fff" height="27.5" rx="3.25" stroke="#d6d6d6" stroke-width=".5" width="40.3333" x=".25" y=".25"/><path clip-rule="evenodd" d="m19.2846 18.3842v-3.5244h1.819c.7454 0 1.3746-.2498 1.8874-.7424l.1231-.1249c.9369-1.0198.8754-2.6086-.1231-3.5522-.4992-.4995-1.183-.77007-1.8874-.7562h-2.92v8.7001zm.0001-4.5931v-3.0388h1.8467c.3967 0 .7729.1526 1.0533.4301.595.5828.6087 1.5541.0342 2.1577-.2804.2983-.6771.4648-1.0875.451zm8.9651-.8943c-.4718-.4371-1.1146-.6591-1.9284-.6591-1.0463 0-1.8327.3885-2.3525 1.1586l.9711.6175c.3556-.5273.8411-.7909 1.4566-.7909.3898 0 .7659.1457 1.06.4093.2872.2498.4513.6106.4513.9921v.2567c-.424-.2358-.9574-.3607-1.6139-.3607-.7659 0-1.3814.1804-1.8395.5481-.4582.3677-.6907.8533-.6907 1.4708-.0137.562.2257 1.0962.6496 1.457.4309.3885.9779.5827 1.6208.5827.759 0 1.3608-.3399 1.819-1.0198h.0479v.8256h1.0531v-3.6702c0-.7701-.2325-1.3806-.7044-1.8177zm-2.9882 4.3916c-.2257-.1665-.3625-.4371-.3625-.7285 0-.326.1505-.5966.4446-.8117.3009-.2151.6771-.3261 1.1217-.3261.6155-.0069 1.0943.1318 1.4363.4094 0 .4717-.1847.8811-.5472 1.228-.3283.333-.7728.5203-1.2379.5203-.3078.0069-.6088-.0971-.855-.2914zm6.0588 3.7119 3.6791-8.5683h-1.1968l-1.7028 4.2737h-.0205l-1.7438-4.2737h-1.1967l2.414 5.5711-1.3677 2.9972z" fill="#3c4043" fill-rule="evenodd"/><path d="m15.4832 14.0969c0-.3399-.0273-.6799-.0821-1.0129h-4.6433v1.9218h2.6602c-.1094.6175-.465 1.1725-.9848 1.5194v1.2488h1.5866c.93-.8672 1.4634-2.1507 1.4634-3.6771z" fill="#4285f4"/><path d="m10.7565 18.9812c1.3267 0 2.4482-.444 3.262-1.2072l-1.5865-1.2488c-.4446.3053-1.0121.4787-1.6755.4787-1.28561 0-2.37293-.8811-2.76273-2.0605h-1.63439v1.2904c.83429 1.6859 2.53707 2.7474 4.39712 2.7474z" fill="#34a853"/><path d="m7.99505 14.9445c-.20519-.6175-.20519-1.2905 0-1.9149v-1.2835h-1.63466c-.70448 1.4084-.70448 3.0735 0 4.4819z" fill="#fbbc04"/><path d="m10.7565 10.9678c.7044-.0138 1.3814.2567 1.8874.7493l1.4088-1.4292c-.8959-.8464-2.0721-1.31124-3.2962-1.29736-1.86005 0-3.56283 1.06846-4.39712 2.75436l1.63439 1.2904c.3898-1.1864 1.47712-2.0675 2.76273-2.0675z" fill="#ea4335"/></svg>