<svg fill="none" height="20" viewBox="0 0 100 20" width="100" xmlns="http://www.w3.org/2000/svg" xmlns:xlink="http://www.w3.org/1999/xlink"><linearGradient id="a" gradientUnits="userSpaceOnUse" x1="-117.981" x2="-117.635" y1="59.2331" y2="59.2331"><stop offset="0" stop-color="#4ec8ec"/><stop offset=".01" stop-color="#4ec8ec"/><stop offset="1" stop-color="#4684c5"/></linearGradient><clipPath id="b"><path d="m0 0h99.7482v20h-99.7482z"/></clipPath><mask id="c" height="13" maskUnits="userSpaceOnUse" width="30" x="39" y="0"><path d="m51.5945 10.6576v-1.09965c-.2439-.11215-.4421-.30429-.5618-.54457-.1196-.24027-.1536-.51424-.0962-.77646s.2027-.49694.4118-.66524c.2092-.16829.4695-.26005.738-.26005.2684 0 .5288.09176.7379.26005.2091.1683.3544.40302.4118.66524s.0235.53619-.0962.77646c-.1197.24028-.3179.43242-.5618.54457v1.09955c.0056.068-.003.1363-.0252.2008s-.0575.1236-.1037.1738c-.0462.0501-.1023.0901-.1648.1175-.0624.0273-.1299.0415-.198.0415-.0682 0-.1357-.0142-.1981-.0415-.0624-.0274-.1185-.0674-.1647-.1175-.0462-.0502-.0816-.1093-.1037-.1738-.0222-.0645-.0308-.1328-.0253-.2007zm3.8211-4.34033v.04836h-6.6458v-.04836h-1.2189v.04836c0 1.94977.3999 3.47929 1.1996 4.58857.3702.5336.8689.9653 1.4499 1.2556.581.2902 1.2257.4295 1.8747.4051.6555.0312 1.3085-.1017 1.8998-.3866.5912-.2849 1.102-.7129 1.486-1.2451.7932-1.08997 1.1898-2.62378 1.1898-4.60142v-.06461zm-16.2711-6.2749655v12.4852955h1.4511v-5.33321h5.1754v-1.28983h-5.1754v-4.56918h5.5075v-1.2898452zm21.5561 1.2769155h1.8864c1.0749 0 1.8563.18166 2.3442.54496.488.36331.732.95877.732 1.7864.0245.3396-.0273.68039-.1518.99733-.1244.31694-.3183.60198-.5673.83419-.4771.4063-1.2295.60946-2.2572.60946h-1.9863zm-1.4511-1.2736852v12.4854652h1.4511v-5.19155h2.6055l3.0214 5.19155h1.7155l-3.3892-5.61063c1.6725-.58044 2.5098-1.69613 2.5119-3.34707 0-1.18021-.3677-2.06051-1.0995-2.647364-.7318-.586851-1.8636-.8803011-3.3955-.8803011zm-10.5151 1.6122652c-.7933 1.08668-1.1899 2.25721-1.1899 4.24994v.0646h1.2254v-.04835c0-1.61227.2837-2.51195.8545-3.36.2673-.41475.6388-.75213 1.0773-.97846s.9287-.33369 1.4217-.31138c.4873-.02536.9727.07848 1.407.30101s.8021.55585 1.0662.96622c.5579.84482.8384 1.73481.8384 3.36968v.04836h1.2189v-.04836c0-1.93473-.3998-3.1308-1.1963-4.23706-.3705-.53509-.87-.968087-1.4522-1.258919s-1.2284-.430104-1.8788-.404928c-.6553-.030617-1.308.102886-1.8987.388399-.5907.285512-1.1007.713998-1.4838 1.246578" fill="#fff"/></mask><g clip-path="url(#b)"><g fill="#fff"><path d="m3.89547 18.9093v.9673h-.38375v-2.8376h.38693v.2418c.09259-.0962.20184-.1748.32247-.2321.12245-.0516.25406-.0779.38693-.0774.14937-.0049.29814.0212.4369.0767s.2645.1392.36925.2458c.1058.1053.18897.2311.24441.3697.05544.1387.08199.2871.07801.4364.00105.1468-.02632.2924-.0806.4288-.05181.1333-.12964.255-.22895.3578-.09761.1097-.2189.1957-.35467.2516-.1381.0562-.28624.0837-.43533.0806-.1392.0011-.27726-.0252-.40631-.0774-.12818-.0569-.24422-.1379-.3418-.2386m0-.8254c-.00252.0999.01501.1993.05156.2923.03655.0931.09137.1778.16123.2493.06365.0721.14213.1296.23006.1686s.18325.0585.27942.0572c.09697-.0005.19291-.02.28233-.0575.08943-.0375.1706-.0922.23887-.1611.06826-.0689.1223-.1505.15902-.2403.03671-.0897.05539-.1858.05497-.2828.00181-.1006-.01635-.2006-.05343-.2941-.03708-.0936-.09235-.1788-.1626-.2509-.06734-.0704-.14848-.1263-.23836-.164s-.18657-.0565-.28403-.0552c-.09468.0002-.18828.0201-.27487.0584s-.16428.0942-.22815.1641c-.06924.0667-.12412.1469-.16127.2356-.03714.0888-.05578.1841-.05475.2803"/><path d="m12.6125 19.1695v-.2773c-.091.0981-.2006.1771-.3225.2322-.1216.0547-.2536.0822-.3869.0806-.1488.0039-.2968-.0227-.4349-.0781-.138-.0555-.2633-.1386-.3681-.2444-.1055-.1061-.1886-.2325-.244-.3716s-.0821-.288-.0784-.4377c-.0013-.1468.0261-.2925.0806-.4289.0503-.1323.1271-.253.2257-.3547.1001-.1069.2207-.1924.3547-.2515.1392-.0564.2884-.0839.4386-.0808.1392-.0012.2772.0251.4063.0773.1221.0562.2317.1362.3225.2354v-.258h.3901v2.1444zm-1.4412-1.0867c-.0029.1008.0148.201.0519.2947s.093.1789.1641.2503c.067.0721.1484.1292.239.1675.0906.0384.1883.0571.2867.0549.0942-.0002.1873-.0202.2734-.0585.086-.0383.1631-.0941.2264-.1639.0698-.0672.1252-.1479.1629-.2371.0377-.0893.0568-.1852.0564-.2821.002-.0997-.0161-.1987-.0532-.2913-.0371-.0925-.0925-.1766-.1629-.2472-.0644-.072-.1435-.1294-.2319-.1684-.0884-.0389-.1842-.0585-.2808-.0573-.0966 0-.1924.0191-.2816.0563s-.1702.0917-.2383.1603c-.068.0687-.1218.1502-.1582.2397-.0364.0896-.0547.1854-.0538.2821"/><path d="m18.0234 17.0254h.4128l.5803 1.5962.6256-1.5962h.416l-1.1544 2.8376h-.4063l.2967-.7546z"/><path d="m26.3939 18.086c.0135-.1958-.0254-.3918-.1129-.5675-.0367-.0592-.0888-.1072-.1507-.139s-.1313-.0462-.2008-.0416c-.0712-.0045-.1424.0097-.2064.0414s-.1184.0797-.158.1392c-.0919.1686-.1333.3601-.1192.5516v1.0996h-.3678v-2.1444h.3451v.2546c.0632-.0893.1459-.1631.2418-.216.0995-.0512.2107-.0756.3225-.0709.1358-.005.2704.0262.3902.0903.111.0659.1998.1636.2547.2805.0566-.1178.1477-.2156.2612-.2805.1244-.064.2632-.0951.4031-.0903.108-.005.2158.0134.316.054.1002.0407.1904.1026.2644.1814.1545.1781.2332.4096.2193.6449v1.3124h-.387v-1.2609c.0094-.1518-.0339-.3021-.1225-.4257-.0377-.0494-.0866-.0892-.1426-.1161-.0561-.0269-.1177-.0402-.1799-.0387-.0692-.006-.1389.0059-.2022.0347-.0633.0289-.118.0736-.1589.1298-.0873.1676-.1254.3566-.1096.5449v1.1222h-.3741z"/><path d="m33.6126 18.2477c.0259.1694.1117.3239.2418.4354.1112.0933.2482.1506.3927.1644s.2898-.0165.4166-.0871c.1054-.0634.1921-.1535.2516-.2611h.4321c-.0826.2183-.2258.4085-.4128.5481-.1813.1265-.3981.192-.6191.187-.1492.0012-.2972-.0273-.4353-.0838-.1358-.0574-.2578-.1431-.3578-.2515-.1008-.1061-.1797-.2311-.2322-.3677-.0572-.1347-.0868-.2794-.087-.4257-.0011-.1455.0251-.2898.0774-.4256.0534-.1325.131-.2538.2289-.3578.1005-.1112.2221-.2011.3578-.2645.1387-.0588.2879-.0884.4385-.087.1834-.0021.3642.0423.5257.1292.1616.0888.2998.2149.4031.3677.0606.1007.1073.2092.1386.3225.03.1322.0441.2675.0419.4031v.0546zm1.3801-.3482c-.0377-.1593-.1246-.3026-.2485-.4095-.1235-.0962-.2755-.1485-.4321-.1485-.1565 0-.3086.0523-.432.1485-.1274.1023-.217.2441-.2548.403z"/><path d="m40.9306 19.1706h-.3837v-2.1444h.3708v.2548c.0713-.0888.1617-.1604.2644-.2096.1014-.0455.2113-.0686.3225-.0677.119-.0077.2383.0106.3497.0534.1113.0429.212.1095.2951.195.1624.1981.2432.4507.2258.7062v1.2253h-.3772v-1.138c.0126-.1783-.0327-.3558-.1292-.5062-.047-.0568-.107-.1014-.175-.1301-.0679-.0286-.1417-.0404-.2152-.0344-.0806-.0064-.1615.008-.2349.0418-.0734.0339-.1369.0862-.1843.1517-.1013.1991-.146.4221-.1292.6449z"/><path d="m47.7555 19.1709v-1.7961h-.3063v-.3482h.3063v-.6965h.3837v.6965h.3032v.3482h-.3032v1.7961z"/><path d="m59.7311 18.2478c.0176.1135.0625.221.1307.3135.0682.0924.1578.1669.261.2173.1032.0503.2171.075.332.0719.1148-.0032.2271-.034.3275-.09.106-.0626.1929-.1529.2515-.2612h.4353c-.0848.218-.2289.4078-.416.5482-.1813.1265-.3981.192-.6191.187-.1482.0015-.2951-.027-.4321-.0838-.1358-.0574-.2578-.1432-.3578-.2515-.1007-.1069-.1805-.2316-.2354-.3678-.1074-.2736-.1074-.5777 0-.8513.0523-.1323.1288-.2536.2257-.3578.1656-.1779.3852-.2961.6249-.3364.2396-.0402.4859-.0002.7004.114.1327.0705.2492.1681.342.2864.0927.1183.1597.2547.1965.4004.0312.1321.0463.2674.0452.4031v.058zm1.3833-.3482c-.0387-.1596-.1267-.3029-.2515-.4095-.1199-.0979-.271-.1494-.4257-.1451-.1593-.0022-.3145.0514-.4385.1515-.1264.1032-.2158.2446-.2547.4031z"/><path d="m67.0432 19.1704h-.387v-2.1444h.3709v.2548c.0707-.0897.1615-.1616.2651-.2098.1036-.0481.217-.0713.3312-.0675.119-.0072.2382.0112.3495.0541.1113.0428.2121.1091.2955.1944.1612.1987.2418.4507.2257.7061v1.2254h-.3805v-1.1381c.0136-.1778-.0305-.3554-.1258-.5062-.0472-.0566-.1072-.101-.1751-.1296-.0679-.0287-.1416-.0406-.2151-.0348-.0806-.0068-.1616.0074-.2351.0413-.0735.034-.1369.0864-.1841.1521-.1029.1985-.1477.4221-.1292.6449z"/><path d="m73.7697 19.3404h.4095c.0563.0962.1377.1753.2354.2289.0994.0527.21.0803.3225.0806.0966.0039.1929-.0118.2832-.0462.0904-.0343.1728-.0866.2424-.1537.0666-.0678.1184-.1486.1522-.2374.0339-.0888.049-.1836.0445-.2785v-.042c-.0907.0984-.2004.1774-.3225.2322-.1228.0545-.2558.082-.3901.0806-.1488.0039-.2968-.0227-.4349-.0781-.1381-.0555-.2633-.1386-.368-.2443-.1056-.1062-.1886-.2327-.2441-.3718-.0554-.1391-.082-.2879-.0784-.4376-.0012-.1469.0262-.2925.0807-.4289.0502-.1331.1283-.254.2289-.3547.0989-.1068.2185-.1924.3515-.2515.1392-.0563.2883-.0838.4384-.0807.1392-.0012.2773.0251.4063.0773.1277.0548.2429.135.3386.2357v-.2579h.3869v1.7896c.0185.3177-.0853.6304-.2902.8738-.1019.1086-.2262.1937-.3643.2494s-.2867.0806-.4354.0731c-.2223.0066-.4415-.054-.6288-.1739-.1751-.1171-.3058-.2898-.3708-.4902m.2579-1.2576c-.0021.1007.0158.2008.0529.2944s.0926.1788.1632.2506c.0673.0716.1488.1284.2393.1667s.188.0573.2863.0558c.0947-.0002.1883-.0201.2748-.0584.0866-.0383.1643-.0942.2282-.1641.0693-.0674.1243-.1481.1614-.2374.0372-.0892.0557-.1851.0547-.2818.0019-.0993-.016-.1981-.0525-.2905-.0365-.0925-.091-.1767-.1604-.248-.0648-.0715-.1439-.1286-.2323-.1675-.0883-.0389-.1839-.0587-.2804-.0582-.0969-.0004-.193.0184-.2826.0554s-.171.0914-.2393.1601c-.0684.0687-.1225.1503-.1591.2401s-.055.1859-.0542.2828z"/><path d="m81.4814 16.7749h-.3837v-.4448h.3837zm-.3805.2515h.3805v2.1413h-.3805z"/><path d="m87.1174 19.1706h-.3869v-2.1444h.3708v.2548c.0713-.0888.1617-.1604.2644-.2096.1013-.0455.2113-.0686.3224-.0677.1191-.0077.2384.0105.3497.0534.1114.0429.2121.1095.2952.195.1624.1981.2431.4507.2258.7062v1.2253h-.387v-1.138c.0138-.178-.0304-.3558-.1259-.5067-.0478-.0566-.1085-.1011-.1769-.1296-.0684-.0286-.1426-.0406-.2165-.0348-.0802-.0069-.1608.0073-.2338.0413-.0729.0339-.1358.0864-.1822.1521-.1029.1986-.1476.4221-.1289.6449z"/><path d="m94.1003 18.2478c.0245.1698.1106.3247.2418.4353.1106.0932.247.1506.391.1644.1441.0138.2889-.0165.4152-.0871.1071-.0612.1944-.1518.2515-.2611h.4482c-.0826.2183-.2257.4084-.4127.5481-.1813.1265-.3982.192-.6192.187-.1492.0012-.2972-.0273-.4353-.0838-.1358-.0574-.2578-.1431-.3578-.2515-.1007-.1068-.1805-.2316-.2354-.3677-.1074-.2736-.1074-.5777 0-.8513.0523-.1323.1288-.2537.2257-.3578.1023-.1106.2249-.2004.3612-.2645.1386-.0588.2879-.0884.4385-.087.1833-.0021.3642.0423.5256.1292.1607.0889.2978.215.3999.3677.0635.0992.1103.2082.1386.3225.0328.1318.048.2673.0452.4031v.0546zm1.3801-.3483c-.0388-.1587-.1256-.3017-.2485-.4095-.1235-.0962-.2755-.1484-.432-.1484-.1566 0-.3087.0522-.4321.1484-.1284.102-.2191.2438-.258.4031z"/><path d="m73.3102.0483531h-3.2246v12.4887469h1.4511v-4.91107h1.4704c1.6058 0 2.8397-.34072 3.7018-1.02218.862-.68145 1.292-1.64885 1.2898-2.9022 0-2.42917-1.5596-3.6426778-4.6788-3.6405243m2.312 5.7074543c-.5739.41594-1.5057.62233-2.7892.62233h-1.3094v-5.08497h1.6123c1.1447 0 1.9895.20316 2.528.60628.2758.21765.4941.49954.6358.82103.1417.3215.2024.67281.177 1.02321 0 .91579-.2881 1.5822-.8642 1.99924m8.2-5.7557-4.9368 12.5371h1.4833l1.522-3.96303h5.0043l1.5542 3.97263h1.5027l-4.9076-12.5467zm-1.4188 7.25849 1.4704-3.86947c.2137-.59008.3935-1.1919.5385-1.8025.1621.61047.3558 1.21212.5804 1.8025l1.4511 3.86947zm15.7745-7.2101369-3.331 6.2459469-3.3051-6.2459469h-1.5897l4.1595 7.7131469v4.7757h1.4704v-4.83682l4.1661-7.6454177zm-85.9601 7.6969969c-.2624.97155-.4669 1.95779-.6126 2.95355-.1661-1.01037-.3977-2.00887-.6933-2.98918l-2.34742-7.6613669h-1.53817l-2.23788 7.5938369c-.30147 1.00103-.52994 2.02261-.6836 3.05671-.14581-.9892-.34488-1.96981-.59635-2.93755l-1.97036-7.7129969h-1.53812l3.32128 12.4887469h1.43495l2.44098-8.30972c.25375-.80904.45298-1.63417.59635-2.46986.05581.34315.13336.68241.23217 1.01572.14834.56429.28376 1.03188.40308 1.40265l2.51859 8.36121h1.4349l3.3374-12.4887469h-1.5381zm8.6773-7.73888937-4.9368 12.53703937h1.4704l1.5381-3.96943h5.0013l1.5542 3.97263h1.5026l-4.9077-12.53725778zm-1.4188 7.25848937 1.4704-3.86947c.2137-.5901.3935-1.19193.5385-1.80255.2.71263.3902 1.3124.5804 1.8025l1.4511 3.86947zm12.4437-.96737-3.3052-6.2491769h-1.5898l4.1595 7.7131469v4.77575h1.4607v-4.83687l4.1919-7.6518783h-1.5704z"/></g><g mask="url(#c)"><path d="m68.0333.0234375h-28.8888v12.5950625h28.8888z" fill="url(#a)"/></g></g></svg>