<svg fill="none" height="28" viewBox="0 0 41 28" width="41" xmlns="http://www.w3.org/2000/svg"><rect fill="#fff" height="27.5" rx="3.25" stroke="#d6d6d6" stroke-width=".5" width="40.3333" x=".25" y=".25"/><g clip-rule="evenodd" fill-rule="evenodd"><path d="m20.707 20.0171c-1.3901 1.1996-3.1934 1.9239-5.1639 1.9239-4.3968 0-7.96107-3.6057-7.96107-8.0535 0-4.44785 3.56427-8.05352 7.96107-8.05352 1.9705 0 3.7738.72421 5.1639 1.92387 1.3902-1.19966 3.1935-1.92387 5.164-1.92387 4.3967 0 7.961 3.60567 7.961 8.05352 0 4.4478-3.5643 8.0535-7.961 8.0535-1.9705 0-3.7738-.7243-5.164-1.9239z" fill="#ed0006"/><path d="m20.707 20.0171c1.7118-1.4772 2.7972-3.6752 2.7972-6.1296 0-2.4545-1.0854-4.6525-2.7972-6.12965 1.3902-1.19966 3.1935-1.92387 5.164-1.92387 4.3967 0 7.961 3.60567 7.961 8.05352 0 4.4478-3.5643 8.0535-7.961 8.0535-1.9705 0-3.7738-.7243-5.164-1.9239z" fill="#f9a000"/><path d="m20.7073 20.017c1.7117-1.4772 2.7971-3.6752 2.7971-6.1296s-1.0854-4.65243-2.7971-6.12959c-1.7118 1.47716-2.7971 3.67519-2.7971 6.12959s1.0853 4.6524 2.7971 6.1296z" fill="#ff5e00"/></g></svg>