<svg fill="none" height="64" viewBox="0 0 33 64" width="33" xmlns="http://www.w3.org/2000/svg"><path d="m-.0016396 1.266c1.0451396-1.450066 1.2361796-1.599931 2.2443996-.728256 1.40147 1.217396 2.75584 2.517896 4.01621 3.942256 5.37703 6.0868 9.74763 13.0777 13.60973 20.5008 1.5256 2.9321 2.8782 5.9952 4.1984 9.0669.7063 1.6433 1.2144 3.4102 1.7047 5.1537 1.2167 4.3682 2.3112 8.755 2.6437 13.2755.1176 1.6037.4577 3.2182.726 4.8238.0661.4193.1391.9073.627 1.0021.0975-.1107.2668-.2125.271-.3264.0498-1.3243.0996-2.6486.1135-3.9774.0203-3.29.012-6.6005.0539-9.8962.0026-.5082.1202-1.0613.3307-1.4842.1595-.3106.5598-.6293.8469-.5934.2871.0358.6942.4765.8217.8229.2017.5803.263 1.2405.2886 1.8539.065 2.0548.1084 4.1154.1375 6.1657.0411 3.2171.0463 6.4298.0731 9.6366.0094.9843.0331 1.9788-.6705 2.6325-2.1093.2832-3.8238-.808-5.4239-2.5078-1.293-1.3734-2.6546-2.6578-3.9836-3.9933-.3001-.3002-.5785-.6485-.8244-1.0055-.8447-1.2538-1.8087-2.3488-2.9244-3.2763-.7008-.5875-1.3398-1.3326-1.9502-2.0571-.2534-.2986-.3983-.7532-.5974-1.1509.2446-.0796.3961-.2048.4927-.1461.9168.4873 1.8843.9047 2.7392 1.5497 1.1377.8369 2.239 1.7542 3.2572 2.7923 1.2145 1.2534 2.5712 2.0881 3.9392 2.8352.4973-.3447.3022-.814.1894-1.2349-.7672-3.0789-1.556-6.1521-2.2981-9.2237-1.2451-5.1217-3.0803-10.029-5.1099-14.8419-.4151-.9883-.9815-1.8938-1.4867-2.8298-1.0673-1.9553-2.1959-3.8802-3.1948-5.8821-1.9693-3.941-4.0974-7.7407-6.80223-11.104-.65662-.8108-1.19769-1.75124-1.81468-2.58678-1.46584-1.97546-3.00037-3.86204-4.76603-5.48933-.550459-.50095-.988854-1.1447-1.4778996-1.71849z" fill="#fff"/></svg>