<svg fill="none" height="46" viewBox="0 0 28 46" width="28" xmlns="http://www.w3.org/2000/svg"><path d="m24.8274 45.3769c1.8911.1957 2.1495.1758 2.253-.7326.1395-1.2654.1803-2.5482.056-3.8455-.5379-5.5394-2.5238-11.0292-5.2227-16.4822-1.0659-2.154-2.3623-4.2877-3.6897-6.4099-.7102-1.1353-1.6642-2.2346-2.614-3.3139-2.3885-2.6986-4.8837-5.3472-8.05773-7.6922-1.12636-.83171-2.09224-1.77622-3.10573-2.68171-.26767-.23454-.58219-.50555-.28428-.78711.15781.00637.36323-.02627.45271.02675 1.04146.61585 2.08289 1.23171 3.10054 1.86706 2.50879 1.5799 5.01149 3.18354 7.54109 4.75581.3871.2443.8955.4547 1.3755.5574.3563.0729.9012.0335 1.0916-.1225.1904-.1561.1649-.56571-.001-.79473-.2869-.37788-.7408-.72651-1.1863-1.03528-1.508-1.02428-3.0368-2.04092-4.5687-3.04569-2.40706-1.57438-4.83794-3.12924-7.24807-4.691748-.73886-.480117-1.47464-.9721114-2.50329-.94802474-1.813315.88235474-2.2857146 2.23809274-2.21012908 3.83263274.06093358 1.28835.00248408 2.56694.00735668 3.85444.0000609.29007.0530767.59287.1372274.88422.310073 1.01399.409378 2.00888.266743 2.99608-.08588.6226-.005502 1.2914.081023 1.9364.034231.2667.268895.5564.419473.8448.245726-.0797.455376-.0924.484166-.1675.32546-.6785.74233-1.3476.90153-2.0724.22788-.9541.36742-1.9295.35223-2.92311-.02942-1.19251.36623-2.2514.83677-3.27339.63814-.07373.84594.24731 1.07945.50517 1.75206 1.85846 3.48339 3.72453 5.24888 5.56733 2.93804 3.0765 5.26634 6.3344 7.37584 9.6407.4344.6782.6914 1.3894 1.0179 2.0858.673 1.4605 1.2765 2.936 2.0367 4.3859 1.4942 2.8559 2.7612 5.7202 3.2602 8.6523.1169.7091.4196 1.425.5852 2.1268.3863 1.6629.6531 3.316.5482 4.9554-.0375.5081.1181 1.031.1823 1.5445z" fill="#fff"/></svg>