<svg fill="none" height="29" viewBox="0 0 28 29" width="28" xmlns="http://www.w3.org/2000/svg"><path d="m.00115687.577382c.88846513-.6614948 1.05086313-.729861 1.90794313-.332217 1.19137.555355 2.34271 1.148625 3.41414 1.798395 4.57097 2.7767 8.28636 5.9658 11.56946 9.35214 1.2969 1.3376 2.4467 2.7349 3.5691 4.1361.6003.7497 1.0323 1.5557 1.4491 2.3511 1.0343 1.9926 1.9647 3.9938 2.2474 6.056.0999.7316.3891 1.4681.6172 2.2006.0562.1912.1182.4138.5329.4571.0829-.0505.2269-.0969.2304-.1489.0423-.6041.0847-1.2083.0965-1.8145.0173-1.5008.0102-3.011.0458-4.5144.0022-.2318.1023-.4842.2811-.6771.1357-.1417.4759-.287.72-.2707.244.0164.5901.2174.6985.3754.1715.2648.2236.5659.2454.8457.0552.9374.0921 1.8774.1168 2.8127.035 1.4676.0394 2.9332.0622 4.3961.008.449.0281.9027-.57 1.2009-1.7931.1292-3.2506-.3686-4.6108-1.1441-1.0991-.6265-2.2566-1.2124-3.3864-1.8216-.2552-.137-.4918-.2959-.7009-.4587-.718-.572-1.5375-1.0715-2.4859-1.4946-.5958-.268-1.139-.6079-1.6579-.9384-.2154-.1362-.3386-.3436-.5078-.525.2079-.0364.3367-.0935.4188-.0667.7794.2223 1.6018.4127 2.3286.7069.9671.3819 1.9033.8003 2.7688 1.2739 1.0325.5717 2.1859.9525 3.3487 1.2933.4228-.1572.2569-.3713.1611-.5633-.6522-1.4046-1.3227-2.8065-1.9536-4.2077-1.0585-2.3364-2.6186-4.5751-4.3439-6.7706-.3529-.4509-.8344-.8639-1.2638-1.2909-.9073-.892-1.8667-1.7701-2.7159-2.6833-1.6741-1.79783-3.48314-3.53121-5.7825-5.06547-.55819-.36988-1.01814-.79891-1.54264-1.18006-1.2461-.90118-2.55058-1.7618-4.05155-2.50414-.467946-.22853-.840621-.522194-1.25635313-.783948z" fill="#fff"/></svg>