<svg fill="none" height="26" viewBox="0 0 25 26" width="25" xmlns="http://www.w3.org/2000/svg"><path d="m24.8379 25.2312c-.7937.5909-.9387.652-1.7044.2968-1.0642-.4961-2.0927-1.0261-3.0498-1.6065-4.0833-2.4805-7.4022-5.3293-10.33504-8.3543-1.15854-1.1948-2.18566-2.4431-3.18823-3.6948-.53632-.6697-.9222-1.3897-1.29452-2.10019-.92394-1.78006-1.75506-3.56773-2.00759-5.40986-.08926-.65353-.34756-1.31148-.55134-1.96577-.05019-.17086-.10558-.3697-.47608-.40834-.07405.04512-.20262.08658-.20578.13299-.03783.53968-.07564 1.07935-.08621 1.62086-.01542 1.34068-.00912 2.68973-.04092 4.03277-.00196.20708-.09134.43248-.25113.60481-.12118.12657-.42511.25645-.64312.24184-.218018-.01461-.527163-.1942-.623995-.33537-.153196-.23648-.199752-.50552-.219202-.75548-.049342-.83734-.0822927-1.67705-.1043834-2.51257-.031226-1.311-.0351846-2.62017-.05554333-3.92699-.00711274-.40109-.02509987-.80636.50916673-1.0727503 1.601787-.1154294 2.903777.3292523 4.118877 1.0219503.98184.55965 2.01582 1.08308 3.02508 1.6273.2279.12233.43928.26427.62606.40975.64144.51094 1.37346.95715 2.2207 1.33511.5322.23942 1.0174.54303 1.4809.83829.1925.12168.3026.30692.4537.469-.1857.03245-.3007.08346-.3741.05955-.6962-.19861-1.4309-.36871-2.08015-.63151-.86392-.34108-1.70025-.71485-2.47341-1.13792-.92232-.51076-1.9526-.8509-2.9914-1.15535-.37764.14047-.22947.33171-.14383.50322.58259 1.2547 1.18157 2.50703 1.7451 3.75873.94558 2.08715 2.33918 4.08693 3.88042 6.04823.31527.4027.74537.7717 1.12897 1.1531.8105.7969 1.6675 1.5813 2.4261 2.3971 1.4955 1.6059 3.1115 3.1543 5.1655 4.5249.4986.3304.9095.7137 1.3781 1.0542 1.1131.805 2.2784 1.5738 3.6192 2.2369.418.2041.7509.4665 1.1223.7003z" fill="#fff"/></svg>