<svg fill="none" height="10" viewBox="0 0 29 10" width="29" xmlns="http://www.w3.org/2000/svg"><path clip-rule="evenodd" d="m7.14613 9.05118h-2.4737l-1.85498-7.07685c-.08805-.32553-.27499-.61333-.54998-.74897-.68627-.340864-1.442499-.612143-2.26747-.748962v-.272459h3.98495c.54998 0 .96247.409278 1.03121.884611l.96247 5.10477 2.4725-5.989381h2.40497zm5.08497 0h-2.33626l1.92376-8.847241h2.3362zm4.9462-6.39618c.0687-.47651.4812-.74897.9624-.74897.7563-.06841 1.58.06841 2.2675.4081l.4125-1.904852c-.6875-.272459-1.4437-.409278-2.13-.409278-2.2674 0-3.9174 1.22548-3.9174 2.92628 0 1.29388 1.1687 1.97326 1.9937 2.38254.8925.4081 1.2362.68056 1.1675 1.08866 0 .61214-.6875.8846-1.3738.8846-.8249 0-1.6499-.20405-2.4049-.54492l-.4125 1.90604c.825.33969 1.7175.4765 2.5425.4765 2.5424.06723 4.1224-1.15706 4.1224-2.99468 0-2.31413-3.2299-2.44977-3.2299-3.47002zm11.406 6.39618-1.8549-8.847241h-1.9925c-.4125 0-.825.272459-.9625.680557l-3.435 8.166684h2.405l.48-1.2927h2.955l.275 1.2927zm-3.5037-6.46435.6863 3.33438h-1.9238z" fill="#172b85" fill-rule="evenodd"/></svg>