<svg fill="none" height="28" viewBox="0 0 41 28" width="41" xmlns="http://www.w3.org/2000/svg"><rect fill="#fff" height="27.5" rx="3.25" stroke="#d6d6d6" stroke-width=".5" width="40.3333" x=".25" y=".25"/><path clip-rule="evenodd" d="m12.3961 18.9672h-2.47367l-1.85498-7.0769c-.08805-.3255-.27499-.6133-.54998-.7489-.68627-.3409-1.4425-.6122-2.26747-.749v-.2724h3.98495c.54998 0 .96245.4092 1.03125.8846l.9624 5.1047 2.4725-5.9893h2.405zm5.085 0h-2.3363l1.9238-8.8472h2.3362zm4.9462-6.3962c.0687-.4765.4812-.749.9624-.749.7563-.0684 1.58.0685 2.2675.4081l.4125-1.9048c-.6875-.2725-1.4437-.40928-2.13-.40928-2.2674 0-3.9174 1.22548-3.9174 2.92628 0 1.2939 1.1687 1.9733 1.9937 2.3825.8925.4081 1.2362.6806 1.1675 1.0887 0 .6121-.6875.8846-1.3738.8846-.8249 0-1.6499-.2041-2.4049-.5449l-.4125 1.906c.825.3397 1.7175.4765 2.5425.4765 2.5424.0673 4.1224-1.157 4.1224-2.9947 0-2.3141-3.2299-2.4497-3.2299-3.47zm11.406 6.3962-1.8549-8.8472h-1.9925c-.4125 0-.825.2724-.9625.6805l-3.435 8.1667h2.405l.48-1.2927h2.955l.275 1.2927zm-3.5037-6.4644.6863 3.3344h-1.9238z" fill="#172b85" fill-rule="evenodd"/></svg>